<?xml version="1.0" encoding="utf-8"?>
<!-- Generator: Adobe Illustrator 27.2.0, SVG Export Plug-In . SVG Version: 6.00 Build 0)  -->
<svg version="1.1" id="Layer_1" xmlns="http://www.w3.org/2000/svg" xmlns:xlink="http://www.w3.org/1999/xlink" x="0px" y="0px"
	 viewBox="0 0 2000 925" style="enable-background:new 0 0 2000 925;" xml:space="preserve">
<style type="text/css">
	.st0{fill:none;}
	.st1{fill:#CF3F36;}
	.st2{fill:#FFFFFF;}
	.st3{fill:#25285D;}
	.st4{fill:url(#SVGID_1_);}
	.st5{fill:#2C3478;stroke:#1C1128;stroke-width:14;stroke-linecap:round;stroke-linejoin:round;stroke-miterlimit:10;}
	.st6{fill:#F2EBD6;stroke:#C0B39E;stroke-width:14;stroke-linecap:round;stroke-linejoin:round;stroke-miterlimit:10;}
	.st7{fill:#A1B29D;stroke:#70926D;stroke-width:14;stroke-linecap:round;stroke-linejoin:round;stroke-miterlimit:10;}
	.st8{fill:#CE9768;stroke:#B46A37;stroke-width:14;stroke-linecap:round;stroke-linejoin:round;stroke-miterlimit:10;}
	.st9{fill:#F5DA93;stroke:#CAB54B;stroke-width:14;stroke-linecap:round;stroke-linejoin:round;stroke-miterlimit:10;}
	.st10{fill:#9F3137;stroke:#851C19;stroke-width:14;stroke-linecap:round;stroke-linejoin:round;stroke-miterlimit:10;}
	.st11{opacity:0.67;fill:#C5CCE6;}
	.st12{fill:none;stroke:#851C19;stroke-width:14;stroke-linecap:round;stroke-linejoin:round;stroke-miterlimit:10;}
	.st13{fill:#444F7E;stroke:#2E3D6F;stroke-width:14;stroke-linecap:round;stroke-linejoin:round;stroke-miterlimit:10;}
	.st14{font-family:'Arial-ItalicMT';}
	.st15{font-size:36px;}
	.st16{font-family:'Arial-BoldItalicMT';}
</style>
<pattern  width="1200" height="1200" patternUnits="userSpaceOnUse" id="New_Pattern_Swatch_12" viewBox="0 -1200 1200 1200" style="overflow:visible;">
	<g>
		<rect x="0" y="-1200" class="st0" width="1200" height="1200"/>
		<rect y="-1200" class="st1" width="1200" height="1200"/>
		<g>
			<g>
				<polygon class="st0" points="0,-757.3 757.3,0 892.7,0 0,-892.7 				"/>
				<polygon class="st0" points="0,-607.3 607.3,0 742.7,0 0,-742.7 				"/>
				<polygon class="st0" points="0,-157.3 157.3,0 292.7,0 0,-292.7 				"/>
				<polygon class="st0" points="0,-457.3 457.3,0 592.7,0 0,-592.7 				"/>
				<polygon class="st0" points="0,-307.3 307.3,0 442.7,0 0,-442.7 				"/>
				<polygon class="st0" points="1200,-892.7 892.7,-1200 757.3,-1200 1200,-757.3 				"/>
				<polygon class="st0" points="1200,-742.7 742.7,-1200 607.3,-1200 1200,-607.3 				"/>
				<polygon class="st0" points="1200,-292.7 292.7,-1200 158.1,-1200 1200,-158.1 				"/>
				<polygon class="st0" points="1200,-442.7 442.7,-1200 307.3,-1200 1200,-307.3 				"/>
				<polygon class="st0" points="0,-907.3 907.3,0 1042.7,0 0,-1042.7 				"/>
				<polygon class="st0" points="141.9,-1200 7.3,-1200 1200,-7.3 1200,-141.9 				"/>
				<polygon class="st0" points="0,-7.3 7.3,0 142.7,0 0,-142.7 				"/>
				<polygon class="st0" points="0,-1057.3 1057.3,0 1192.7,0 0,-1192.7 				"/>
				<polygon class="st0" points="1200,-1192.7 1192.7,-1200 1057.3,-1200 1200,-1057.3 				"/>
				<polygon class="st0" points="1200,-1042.7 1042.7,-1200 907.3,-1200 1200,-907.3 				"/>
				<polygon class="st0" points="1200,-592.7 592.7,-1200 457.3,-1200 1200,-457.3 				"/>
				<polygon class="st2" points="1200,-1200 1192.7,-1200 1200,-1192.7 				"/>
				<polygon class="st2" points="0,-1200 0,-1192.7 1192.7,0 1200,0 1200,-7.3 7.3,-1200 				"/>
				<polygon class="st2" points="0,0 7.3,0 0,-7.3 				"/>
				<polygon class="st2" points="1200,-607.3 607.3,-1200 592.7,-1200 1200,-592.7 				"/>
				<polygon class="st2" points="0,-592.7 592.7,0 607.3,0 0,-607.3 				"/>
				<polygon class="st2" points="0,-892.7 892.7,0 907.3,0 0,-907.3 				"/>
				<polygon class="st2" points="0,-292.7 292.7,0 307.3,0 0,-307.3 				"/>
				<polygon class="st2" points="1200,-907.3 907.3,-1200 892.7,-1200 1200,-892.7 				"/>
				<polygon class="st2" points="1200,-307.3 307.3,-1200 292.7,-1200 1200,-292.7 				"/>
				<polygon class="st2" points="1200,-1057.3 1057.3,-1200 1042.7,-1200 1200,-1042.7 				"/>
				<polygon class="st2" points="1200,-757.3 757.3,-1200 742.7,-1200 1200,-742.7 				"/>
				<polygon class="st2" points="1200,-457.3 457.3,-1200 442.7,-1200 1200,-442.7 				"/>
				<polygon class="st2" points="1200,-158.1 158.1,-1200 141.9,-1200 1200,-141.9 				"/>
				<polygon class="st2" points="0,-1042.7 1042.7,0 1057.3,0 0,-1057.3 				"/>
				<polygon class="st2" points="0,-742.7 742.7,0 757.3,0 0,-757.3 				"/>
				<polygon class="st2" points="0,-442.7 442.7,0 457.3,0 0,-457.3 				"/>
				<polygon class="st2" points="0,-142.7 142.7,0 157.3,0 0,-157.3 				"/>
			</g>
			<g>
				<polygon class="st0" points="1200,-757.3 442.7,0 307.3,0 1200,-892.7 				"/>
				<polygon class="st0" points="1200,-607.3 592.7,0 457.3,0 1200,-742.7 				"/>
				<polygon class="st0" points="1200,-157.3 1042.7,0 907.3,0 1200,-292.7 				"/>
				<polygon class="st0" points="1200,-457.3 742.7,0 607.3,0 1200,-592.7 				"/>
				<polygon class="st0" points="1200,-307.3 892.7,0 757.3,0 1200,-442.7 				"/>
				<polygon class="st0" points="0,-892.7 307.3,-1200 442.7,-1200 0,-757.3 				"/>
				<polygon class="st0" points="0,-742.7 457.3,-1200 592.7,-1200 0,-607.3 				"/>
				<polygon class="st0" points="0,-292.7 907.3,-1200 1041.9,-1200 0,-158.1 				"/>
				<polygon class="st0" points="0,-442.7 757.3,-1200 892.7,-1200 0,-307.3 				"/>
				<polygon class="st0" points="1200,-907.3 292.7,0 157.3,0 1200,-1042.7 				"/>
				<polygon class="st0" points="1058.1,-1200 1192.7,-1200 0,-7.3 0,-141.9 				"/>
				<polygon class="st0" points="1200,-7.3 1192.7,0 1057.3,0 1200,-142.7 				"/>
				<polygon class="st0" points="1200,-1057.3 142.7,0 7.3,0 1200,-1192.7 				"/>
				<polygon class="st0" points="0,-1192.7 7.3,-1200 142.7,-1200 0,-1057.3 				"/>
				<polygon class="st0" points="0,-1042.7 157.3,-1200 292.7,-1200 0,-907.3 				"/>
				<polygon class="st0" points="0,-592.7 607.3,-1200 742.7,-1200 0,-457.3 				"/>
				<polygon class="st2" points="0,-1200 7.3,-1200 0,-1192.7 				"/>
				<polygon class="st2" points="1200,-1200 1200,-1192.7 7.3,0 0,0 0,-7.3 1192.7,-1200 				"/>
				<polygon class="st2" points="1200,0 1192.7,0 1200,-7.3 				"/>
				<polygon class="st2" points="0,-607.3 592.7,-1200 607.3,-1200 0,-592.7 				"/>
				<polygon class="st2" points="1200,-592.7 607.3,0 592.7,0 1200,-607.3 				"/>
				<polygon class="st2" points="1200,-892.7 307.3,0 292.7,0 1200,-907.3 				"/>
				<polygon class="st2" points="1200,-292.7 907.3,0 892.7,0 1200,-307.3 				"/>
				<polygon class="st2" points="0,-907.3 292.7,-1200 307.3,-1200 0,-892.7 				"/>
				<polygon class="st2" points="0,-307.3 892.7,-1200 907.3,-1200 0,-292.7 				"/>
				<polygon class="st2" points="0,-1057.3 142.7,-1200 157.3,-1200 0,-1042.7 				"/>
				<polygon class="st2" points="0,-757.3 442.7,-1200 457.3,-1200 0,-742.7 				"/>
				<polygon class="st2" points="0,-457.3 742.7,-1200 757.3,-1200 0,-442.7 				"/>
				<polygon class="st2" points="0,-158.1 1041.9,-1200 1058.1,-1200 0,-141.9 				"/>
				<polygon class="st2" points="1200,-1042.7 157.3,0 142.7,0 1200,-1057.3 				"/>
				<polygon class="st2" points="1200,-742.7 457.3,0 442.7,0 1200,-757.3 				"/>
				<polygon class="st2" points="1200,-442.7 757.3,0 742.7,0 1200,-457.3 				"/>
				<polygon class="st2" points="1200,-142.7 1057.3,0 1042.7,0 1200,-157.3 				"/>
			</g>
		</g>
	</g>
</pattern>
<rect x="0.6" y="-4.6" class="st3" width="2000.2" height="606.2"/>
<pattern  id="SVGID_1_" xlink:href="#New_Pattern_Swatch_12" patternTransform="matrix(0.5 0 0 0.4544 -2406.0654 -4139.0742)">
</pattern>
<rect x="2.3" y="601.5" class="st4" width="2000.2" height="322.4"/>
<g>
	<g>
		<path class="st5" d="M95.3,269.2c0,38.7,3.2,73.2,0.4,108c-10,124.9,9.8,250.7,0.9,375.6c159.7-2.9,319.4-5,479.1-6.5
			c0.3-53.7,0.5-105.7,0.8-159.4c0.3-63.2,0.7-126.3,1-189.5c0.2-42.7,2.6-85.3,2.2-127.9c-49,1.6-90.9,1.6-136.6-0.1
			c-40.1-1.4-80.1,5.4-120.2,3.8c-8.6-0.3-17.3-1.1-25.9-1.7c-15.1-1.1-30.4-1.9-45.5-0.4C206.8,269.2,103.1,268.1,95.3,269.2z"/>
		<path class="st6" d="M95.3,269.2c24.4-16.2,42.4-50.3,71.7-50.9c119.5-2.5,126.3-2.3,189.2-0.6c87.7,2.4,176.1,7,266.6,11.9
			c-14.7,10.5-26.8,26.1-45.4,41.3c-51.5,0.8-100.1-1-149.9,0.5c-18.3,0.6-254.1,1.3-293.9-0.4C118.2,270.4,110.8,270.6,95.3,269.2z
			"/>
		<path class="st7" d="M577.5,270.9c15.4-11.8,30-29.6,45.4-41.3c13,155.4,14.1,311.7,6.6,467.5c-17.3,16.5-34.4,31.6-53.2,46.3
			C567.2,585.5,573.8,429,577.5,270.9z"/>
	</g>
	<g>
		<path class="st8" d="M146,319.7c29.1,0.3,58.3,0.6,87.4,1c17,0.2,34.1,0.4,51.1,0.4c18.1,0,36.3-0.3,54.2-3.1
			c3.8,64.8-0.1,129.8-0.2,194.8c-0.1,47,1.8,94.1,3.7,141.1c0.7,17.3,1.4,34.6,2.1,52c-66.3-0.9-132.7-1.8-199-2.8
			c1.1-19.2-3.1-38.3-4.7-57.4c-2-24.1,0.1-48.3,1.7-72.4c3.4-51.8,4.3-103.8,2.7-155.7C143.9,384.7,147.7,352.4,146,319.7z"/>
		<path class="st9" d="M532.5,316.9c0,33-1.3,66-1.7,99.1c-0.4,33,0.2,65.9,1.8,98.9c-64.5-8.3-130,3.2-194.9-0.6
			c1.8-51.7,2.3-103.4,1.3-155.1c-0.1-7.7,0.3-27.3-0.3-35.8c-0.6-7.9,23.2-6.2,30.4-6.4c25.6-0.8,51.4,1.2,77,0.8
			C453.4,317.6,532.5,316.6,532.5,316.9z"/>
		<path class="st10" d="M339,515.9c37.8-1.1,75.6-2.1,113.4-3.2c18.3-0.5,36.7-1,55-0.2c8.3,0.4,16.7,1.1,24.9-0.1
			c2.3,65-6.8,130.2-1.1,195c-62.1-4.4-124.6,3.4-186.7-1.8c-0.4-16.9-0.8-33.8-1.2-50.8C342.3,608.9,336.5,561.9,339,515.9z"/>
	</g>
</g>
<g id="Glasses_00000097470266731048360170000017190518666366257041_">
	<circle class="st11" cx="252.7" cy="507.7" r="61.1"/>
	<circle class="st11" cx="416.4" cy="507.7" r="61.1"/>
	<g>
		<path d="M256.1,580.3c-6.2,0-12.4-0.8-18.4-2.3c-16.7-4.3-28.5-13.5-35.3-20.5c-4.5-4.5-8.1-9.5-11.6-14.3
			c-2.5-3.4-10.1-18.1-11.2-24.1c-0.7-3.8-1.1-8-1-12.2c0.1-17.4,6.2-34.3,17.2-47.4c11.2-13.3,27.3-22.4,44.2-24.8
			c5.2-0.7,10.1-0.9,15.6-0.9c3.4,0,6.6,0.3,9.7,0.7c0.9,0.1,1.9,0.2,2.8,0.3l0,0c17.1,1.7,34,13.6,43.1,24.5
			c9.9,11.8,14.7,24.3,16.1,41.9c0.4,4.5,0.7,9.8,0.2,15.1c-1.2,11.9-10.1,45.1-36.8,56.5C278.7,577.8,267.3,580.3,256.1,580.3z
			 M197.8,515.7c0.7,3,6.4,14.2,7.9,16.5c3.2,4.4,6.3,8.6,9.8,12.2c8.3,8.5,31.6,26.5,67.4,11.3c16.7-7.1,24.6-31.3,25.6-41.2
			c0.4-3.8,0.1-7.9-0.2-11.8c-1.1-13.6-4.5-22.7-11.8-31.4c-6.5-7.8-18.9-16.7-30.7-17.9l0,0c-1-0.1-2-0.2-3.1-0.3
			c-2.6-0.3-5-0.6-7.2-0.6c-4.8,0.1-9.1,0.2-13.2,0.7c-12.4,1.8-24.3,8.4-32.5,18.3c-8.1,9.7-12.8,22.6-12.8,35.5
			C197.1,510,197.4,513,197.8,515.7z"/>
	</g>
	<g>
		<path d="M418.1,578.9c-11,0-20.1-1.3-22.4-2c-0.1,0-0.4-0.1-0.7-0.2c-19.1-4.2-34-16.7-44.2-37c-7.7-15.4-9.5-34.3-4.8-52
			c4.5-17.1,14.9-32.3,29.2-42.9c6.6-4.9,13.3-8.2,19.9-9.9c3.2-0.8,6.6-1.3,10.8-1.6l0,0c16.7-1.1,37.9-0.9,53.8,11.5
			c10.9,8.5,19.9,20.5,26.7,35.4c3.4,7.5,7.6,16.8,7.7,27c0.1,5.6-1.1,10.8-2.1,15.4c-1.3,5.8-3.1,11.4-5.4,16.5
			c-7.6,17.1-26.3,29-31.8,32.2C444.9,577.3,430.3,578.9,418.1,578.9z M400.8,558.9c4.7,1.1,33,3.2,44.5-3.6
			c8.5-5,19.9-14.2,24.2-23.8c1.8-4,3.2-8.4,4.2-13c0.9-4,1.7-7.7,1.7-11.1c-0.1-6.3-3.1-13-6.1-19.5c-5.6-12.2-12.7-21.8-21.2-28.4
			c-10.9-8.5-27.6-8.5-41-7.6h0c-3,0.2-5.4,0.6-7.5,1.1c-4.3,1.1-8.8,3.4-13.4,6.8c-10.9,8.1-18.8,19.7-22.2,32.7
			c-3.5,13.3-2.3,27.5,3.4,38.9c11.4,22.7,26.5,26,31.5,27.1C399.6,558.6,400.2,558.8,400.8,558.9z"/>
	</g>
	<g>
		<g>
			<path d="M375.1,506.1c-2.2,0-4-1.7-4-3.9c0-2.2,1.7-4.1,3.9-4.1l44.9-1c9.1-0.2,18.4-0.4,27.6-0.8c2.3-0.1,4.1,1.6,4.2,3.8
				c0.1,2.2-1.6,4.1-3.8,4.2c-9.3,0.4-18.7,0.6-27.8,0.8L375.1,506.1C375.1,506.1,375.1,506.1,375.1,506.1z"/>
		</g>
		<g>
			<path d="M423.1,500.6c0.3,0,0.6,0,0.8,0.2c0.3,0.3,0.3,0.8,0.2,1.2c-0.4,2.2-1.3,4.2-2.1,6.2c-1,2.3-2,4.6-3.7,6.5
				c-1.6,1.9-4,3.3-6.5,3.2c-5.3-0.2-12.2-8.4-9.5-13.7C405.2,498.7,418.1,500.3,423.1,500.6z"/>
		</g>
	</g>
	<g>
		<g>
			<path d="M221.5,509.6c-2.2,0-4-1.8-4-4c0-2.2,1.8-4,4-4c1.9,0,4-0.2,6.4-0.6l1.4-0.2c1.4-0.2,2.9-0.5,4.5-0.6
				c1.9-0.1,3.7-0.1,5.4,0l0.4,0c12.3,0.4,24.9,0,37.1-0.4c5-0.2,10.1-0.3,15-1.2c2.2-0.4,4.3,1.1,4.7,3.3c0.4,2.2-1.1,4.3-3.3,4.7
				c-5.4,1-10.8,1.1-16.1,1.3c-12.4,0.4-25.1,0.8-37.7,0.4l-0.4,0c-1.6,0-3.1-0.1-4.6,0c-1.2,0.1-2.4,0.3-3.8,0.5l-1.4,0.2
				C226.3,509.4,223.8,509.6,221.5,509.6C221.5,509.6,221.5,509.6,221.5,509.6z"/>
		</g>
		<g>
			<path d="M247.1,514.5c0.8,1.3,1.6,2.6,2.8,3.4c1.7,1.1,3.8,1.2,5.8,1.1c1.1-0.1,2.1-0.2,3.1-0.5c2.4-0.8,4.3-2.7,5.6-4.9
				c1.3-2.2,2.1-4.6,2.8-7c-0.8-0.6-1.9-0.6-2.9-0.6c-5.2,0-10.3,0.2-15.4,0.6c-1.3,0.1-5.1-0.2-5.2,1.7
				C243.6,510,246.2,513.1,247.1,514.5z"/>
		</g>
	</g>
	<g>
		<path class="st2" d="M449.4,533.5c-0.9,0-1.8-0.5-2.3-1.3c-0.8-1.3-0.4-2.9,0.9-3.7c3.4-2.1,6.2-5,8.1-8.6
			c0.7-1.3,2.3-1.8,3.6-1.1c1.3,0.7,1.8,2.3,1.1,3.6c-2.3,4.4-5.8,8.1-10.1,10.7C450.3,533.3,449.9,533.5,449.4,533.5z"/>
	</g>
	<g>
		<path class="st2" d="M448,540.8c-0.6,0-1.2-0.4-1.3-1c-0.2-0.7,0.3-1.4,1-1.6c4.4-1,8-2.6,10.9-5c3.2-2.6,5.3-6.2,5.9-9.9
			c0.1-0.7,0.8-1.2,1.5-1.1c0.7,0.1,1.2,0.8,1.1,1.5c-0.6,4.3-3.1,8.5-6.8,11.5c-3.2,2.6-7.2,4.5-12,5.6
			C448.2,540.8,448.1,540.8,448,540.8z"/>
	</g>
	<g>
		<path class="st2" d="M219.6,476.9c-0.4,0-0.7-0.1-1.1-0.3c-1.1-0.6-1.5-1.9-0.9-3c3.3-6,8.6-10.8,14.9-13.5c1.1-0.5,2.4,0,2.9,1.2
			c0.5,1.1,0,2.4-1.2,2.9c-5.4,2.3-9.9,6.4-12.8,11.6C221.2,476.5,220.4,476.9,219.6,476.9z"/>
	</g>
	<g>
		<path d="M350.5,513.5c-2.6-1.3-4.5-2.9-6-4.3c-0.7-0.6-1.6-1.4-2-1.6c-0.6-0.3-2.7-0.3-3.4-0.3c-3.2-0.1-6.6,0-9.5,0.7
			c-2.1,0.6-3.8,1.6-4.6,2.8l-15.6-10.3c3.3-5,8.7-8.7,15.3-10.5c5.2-1.4,10.3-1.5,14.7-1.4c3.3,0.1,7.2,0.3,11,2
			c2.8,1.3,4.8,3.1,6.5,4.5c0.7,0.6,1.6,1.4,2,1.6L350.5,513.5z"/>
	</g>
</g>
<g>
	<path d="M356,626.2c-0.2,0-0.3,0-0.5,0c-14.3-1.1-28.9-1.6-43.2-1.4c-3.5,0.1-6.3-2.7-6.3-6.2c0-3.4,2.7-6.3,6.2-6.3
		c14.7-0.2,29.7,0.3,44.3,1.5c3.4,0.3,6,3.3,5.7,6.7C361.9,623.8,359.2,626.2,356,626.2z"/>
</g>
<path class="st12" d="M92.6,585.4c16.7,30.2,46.4,51.5,78.4,64.6c31.9,13.1,66.4,18.7,100.4,24.3c41.5,6.8,83.1,13.6,124.6,20.4"/>
<path class="st12" d="M578.2,586.2c-81,42.3-166.9,75.1-255.5,97.5c-25.3,6.4-50.9,12-75.3,21.3"/>
<path class="st13" d="M1912.6,84.2h-331.3l-13.9,13.9v195.1l13.9,13.9h34.7v48.4l51.9-51.9h244.8l12.2-12.2V98.1
	C1924.8,98.1,1913.1,83.7,1912.6,84.2z"/>
<text transform="matrix(1 0 0 1 1598.3362 141.3151)"><tspan x="0" y="0" class="st2 st14 st15">Don’t be daft, why </tspan><tspan x="0" y="43.2" class="st2 st14 st15">would I tell </tspan><tspan x="0" y="86.4" class="st2 st14 st15">a total stranger </tspan><tspan x="0" y="129.6" class="st2 st16 st15">my name?</tspan></text>
</svg>
